<svg fill="none" height="24" viewBox="0 0 24 24" width="24" xmlns="http://www.w3.org/2000/svg"><g stroke="#141414"><path d="m4.75 8.25v-.5c0-1.10457.89543-2 2-2h10.5c1.1046 0 2 .89543 2 2v8.5c0 1.1046-.8954 2-2 2h-2.5" stroke-linecap="round" stroke-linejoin="round" stroke-width="1.5"/><path d="m5.5 18c0 .2761-.22386.5-.5.5s-.5-.2239-.5-.5.22386-.5.5-.5.5.2239.5.5z"/><g stroke-linecap="round" stroke-linejoin="round" stroke-width="1.5"><path d="m8.25 18.25c0-2-1.5-3.5-3.5-3.5"/><path d="m11.25 18.25c0-3.7143-2.78571-6.5-6.5-6.5"/></g></g></svg>